<svg width="90" height="92" viewBox="0 0 90 92" fill="none" xmlns="http://www.w3.org/2000/svg">
<path d="M14.8743 77.8867L5.71995 87H71.6653C78.5688 87 84.1653 81.4036 84.1653 74.5V17.5C84.1653 10.5964 78.5688 5.00001 71.6653 5H28.1106C21.2071 5.00008 15.6106 10.5965 15.6106 17.5V63.5186H10.6106V17.5C10.6106 7.83507 18.4457 7.73103e-05 28.1106 0H71.6653C81.3302 8.24703e-06 89.1653 7.83502 89.1653 17.5V74.5C89.1653 84.165 81.3303 92 71.6653 92H4.50902C0.495177 91.9998 -1.51051 87.1424 1.33421 84.3105L11.3469 74.3438L14.8743 77.8867ZM51.2014 57.8223C51.2013 61.2998 47.4501 63.4215 44.4963 61.7461L44.2131 61.5713L30.3791 52.3906C28.0065 50.816 27.6746 47.4612 29.6926 45.4521L43.5266 31.6807L43.7981 31.4297C46.6616 28.9827 51.2011 30.9902 51.2014 34.8691V39.8984H46.2014V36.0723L33.6535 48.5625L46.2014 56.8896V54.8887C46.2017 52.4037 48.2164 50.3888 50.7014 50.3887H61.7327C65.2017 50.2488 67.9397 52.415 69.8303 54.5918C70.6241 55.5058 71.3437 56.5077 71.9875 57.5195C72.0838 52.96 71.5153 49.016 70.0666 46.123C69.1292 44.251 67.8444 42.8591 66.1311 41.9629C64.3996 41.0572 62.0352 40.5567 58.7864 40.8154L58.3899 35.8311C62.3333 35.5171 65.6893 36.089 68.4485 37.5322C71.2258 38.985 73.2024 41.2189 74.5373 43.8848C76.9791 48.761 77.3306 55.1847 76.7659 61.6016L76.6409 62.8848C76.4343 64.8262 74.8614 65.8187 73.5471 65.9834C72.335 66.1351 70.7847 65.6721 69.9582 64.249L69.803 63.9512C68.869 61.9522 67.5807 59.6269 66.0549 57.8701C64.4714 56.0469 63.0665 55.3207 61.8899 55.3857L61.8205 55.3887H51.2014V57.8223Z" fill="#289D7C"/>
</svg>
